<?xml version="1.0" encoding="UTF-8"?><svg id="a" xmlns="http://www.w3.org/2000/svg" xmlns:xlink="http://www.w3.org/1999/xlink" viewBox="0 0 18 18"><defs><linearGradient id="b" x1="11.18" y1="1072.3" x2="11.18" y2="1063.05" gradientTransform="translate(0 -1062)" gradientUnits="userSpaceOnUse"><stop offset="0" stop-color="#0078d4"/><stop offset=".15" stop-color="#1882db"/><stop offset=".37" stop-color="#378fe4"/><stop offset=".59" stop-color="#4c99ea"/><stop offset=".81" stop-color="#5a9eee"/><stop offset="1" stop-color="#5ea0ef"/></linearGradient></defs><path d="M17.7,7.41c-.04-1.44-1.12-2.63-2.54-2.82-.09-2.02-1.78-3.59-3.81-3.53-1.61-.03-3.06.96-3.62,2.47-1.72.21-3.02,1.64-3.08,3.37.08,1.95,1.72,3.48,3.68,3.41.11,0,.22,0,.32-.01h5.95c.05,0,.11,0,.16-.02,1.59-.01,2.88-1.27,2.94-2.86Z" style="fill:url(#b);"/><path d="M10.78,9.97l.02.43.43.06c1.23.17,2.16,1.19,2.2,2.43-.04,1.38-1.16,2.48-2.55,2.5h-.08s-.03,0-.03,0h-6.6c-.42.03-.84-.03-1.24-.17-.41-.14-.78-.36-1.11-.64-.31-.29-.56-.65-.74-1.03-.45-1.09-.23-2.34.56-3.21.52-.55,1.21-.89,1.96-.97l.31-.04.11-.3c.25-.67.7-1.25,1.29-1.66.59-.4,1.29-.61,2-.6h.03c1.83-.06,3.36,1.37,3.44,3.2h0Z" style="fill:#fff;"/><path d="M10.79,15.9l-.09-.02h-6.54c-.47.02-.95-.04-1.4-.19-.47-.16-.9-.41-1.27-.74-.36-.34-.66-.75-.87-1.2-.53-1.27-.28-2.73.64-3.76.6-.64,1.41-1.04,2.28-1.13h0c.28-.78.8-1.44,1.48-1.91.67-.47,1.47-.71,2.29-.69,2.1-.06,3.86,1.58,3.95,3.68h.01c1.47.21,2.59,1.44,2.64,2.92-.03,1.66-1.38,3-3.04,3.02l-.09.02ZM7.3,7.27c-1.25-.02-2.38.76-2.81,1.93l-.22.58-.62.07c-.63.06-1.22.35-1.66.82-.66.73-.83,1.77-.46,2.68.15.32.36.62.62.86.27.24.59.42.93.53.34.11.69.16,1.04.14h6.7c1.13,0,2.05-.89,2.09-2.02-.04-.98-.79-1.79-1.77-1.92l-.84-.11-.04-.85c-.07-1.55-1.37-2.76-2.92-2.72h-.05Z" style="fill:#50e6ff;"/><path d="M5.1,12.5v-.3l-.31-.1-.08-.21.15-.31v-.04l-.1-.1-.11-.12h-.04l-.3.15-.21-.05-.13-.34h-.3l-.1.31-.21.08-.35-.16-.22.22v.04l.15.3-.08.21-.37.13v.3h.04l.32.11.09.2-.17.35.22.22h.04l.3-.16.21.08.13.37h.3v-.04l.11-.32.2-.08.36.16.21-.21v-.04l-.13-.29.06-.21.32-.12ZM3.83,12.78c-.24,0-.43-.18-.43-.42,0-.24.18-.43.42-.43.06,0,.12,0,.17.03.08.03.15.09.19.16.05.07.07.15.07.24,0,.23-.17.42-.4.43h-.02Z" style="fill:#0078d4;"/><path d="M3.82,15.9c-1.95-.01-3.53-1.6-3.52-3.56s1.6-3.53,3.56-3.52c1.95.01,3.52,1.59,3.52,3.54h-1.07c0-1.36-1.1-2.46-2.46-2.46-1.36,0-2.46,1.1-2.46,2.46,0,1.36,1.1,2.46,2.46,2.46h.78s.04,0,.06-.02c0,0,.01-.02.02-.03,0,0,0-.02,0-.03v-.87s.02-.06.05-.07c.03,0,.06,0,.08.02l1.5,1.5s0,.03,0,.05c0,.02-.01.03-.03.04l-1.5,1.5s-.03.02-.04.02c-.02,0-.03,0-.04,0-.01,0-.03-.02-.03-.03,0-.01-.01-.03-.01-.04v-.89s0-.04-.02-.05c-.01-.01-.03-.02-.05-.02h-.77Z" style="fill:#0078d4; fill-rule:evenodd;"/></svg>